0
SECTION
2
HEADER
9
$ACADVER
1
AC1008
9
$UCSORG
10
0.0
20
0.0
30
0.0
9
$UCSXDIR
10
1.0
20
0.0
30
0.0
9
$TILEMODE
70
1
9
$UCSYDIR
10
0.0
20
1.0
30
0.0
9
$EXTMIN
10
-51.144218
20
-8.312901
30
4.690784
9
$EXTMAX
10
52.124252
20
-2.314307
30
85.309258
0
ENDSEC
0
SECTION
2
TABLES
0
TABLE
2
LTYPE
70
1
0
LTYPE
2
CONTINUOUS
70
64
3
Solid line
72
65
73
0
40
0.0
0
ENDTAB
0
TABLE
2
LAYER
70
1
0
LAYER
2
PICTURE
70
0
62
234
6
CONTINUOUS
0
ENDTAB
0
TABLE
2
STYLE
70
1
0
STYLE
2
STANDARD
70
0
40
0.0
41
1.0
50
0.0
71
0
42
0.2
3
txt
4

0
ENDTAB
0
TABLE
2
UCS
70
0
0
ENDTAB
0
ENDSEC
0
SECTION
2
ENTITIES
0
POLYLINE
8
PICTURE
66
1
70
64
71
300
72
574
62
234
0
VERTEX
8
PICTURE
10
-40.219971
20
-4.314322
30
15.615018
70
192
0
VERTEX
8
PICTURE
10
41.200005
20
-4.314323
30
15.615018
70
192
0
VERTEX
8
PICTURE
10
41.200008
20
-4.314323
30
74.385017
70
192
0
VERTEX
8
PICTURE
10
-40.219971
20
-4.314323
30
74.385025
70
192
0
VERTEX
8
PICTURE
10
-40.219978
20
-2.314325
30
15.615018
70
192
0
VERTEX
8
PICTURE
10
41.200008
20
-2.314325
30
15.615018
70
192
0
VERTEX
8
PICTURE
10
41.200008
20
-2.314321
30
74.385017
70
192
0
VERTEX
8
PICTURE
10
-40.219971
20
-2.314321
30
74.385025
70
192
0
VERTEX
8
PICTURE
10
-42.896004
20
-5.589469
30
12.938985
70
192
0
VERTEX
8
PICTURE
10
-42.945541
20
-5.844245
30
12.889447
70
192
0
VERTEX
8
PICTURE
10
-43.024582
20
-6.065146
30
12.810407
70
192
0
VERTEX
8
PICTURE
10
-43.148590
20
-6.260075
30
12.686399
70
192
0
VERTEX
8
PICTURE
10
-43.311218
20
-6.422704
30
12.523763
70
192
0
VERTEX
8
PICTURE
10
-43.506149
20
-6.546702
30
12.328832
70
192
0
VERTEX
8
PICTURE
10
-43.727036
20
-6.625743
30
12.107945
70
192
0
VERTEX
8
PICTURE
10
-43.967606
20
-6.653496
30
11.867383
70
192
0
VERTEX
8
PICTURE
10
-44.208138
20
-6.625743
30
11.626843
70
192
0
VERTEX
8
PICTURE
10
-44.429031
20
-6.546703
30
11.405957
70
192
0
VERTEX
8
PICTURE
10
-44.623962
20
-6.422703
30
11.211026
70
192
0
VERTEX
8
PICTURE
10
-44.786591
20
-6.260075
30
11.048398
70
192
0
VERTEX
8
PICTURE
10
-44.910606
20
-6.065145
30
10.924390
70
192
0
VERTEX
8
PICTURE
10
-44.989647
20
-5.844244
30
10.845349
70
192
0
VERTEX
8
PICTURE
10
-45.017395
20
-5.603701
30
10.817601
70
192
0
VERTEX
8
PICTURE
10
-47.168419
20
-5.603701
30
8.666562
70
192
0
VERTEX
8
PICTURE
10
-47.168419
20
-6.295107
30
8.666562
70
192
0
VERTEX
8
PICTURE
10
-47.936661
20
-6.295107
30
7.898335
70
192
0
VERTEX
8
PICTURE
10
-47.936661
20
-7.140159
30
7.898335
70
192
0
VERTEX
8
PICTURE
10
-48.481201
20
-7.144797
30
7.353787
70
192
0
VERTEX
8
PICTURE
10
-48.901230
20
-7.284088
30
6.933758
70
192
0
VERTEX
8
PICTURE
10
-49.218460
20
-7.538331
30
6.616528
70
192
0
VERTEX
8
PICTURE
10
-49.454620
20
-7.887829
30
6.380368
70
192
0
VERTEX
8
PICTURE
10
-49.631439
20
-8.312885
30
6.203557
70
192
0
VERTEX
8
PICTURE
10
-51.144211
20
-8.312888
30
4.690792
70
192
0
VERTEX
8
PICTURE
10
-51.144196
20
-2.314315
30
4.690792
70
192
0
VERTEX
8
PICTURE
10
-40.219971
20
-2.314317
30
15.615018
70
192
0
VERTEX
8
PICTURE
10
-40.219971
20
-4.611170
30
15.615018
70
192
0
VERTEX
8
PICTURE
10
-41.099411
20
-4.611170
30
14.735578
70
192
0
VERTEX
8
PICTURE
10
-41.445122
20
-5.186385
30
14.389867
70
192
0
VERTEX
8
PICTURE
10
-42.226921
20
-5.186385
30
13.608068
70
192
0
VERTEX
8
PICTURE
10
-42.260986
20
-5.312709
30
13.573995
70
192
0
VERTEX
8
PICTURE
10
-42.330612
20
-5.415254
30
13.504376
70
192
0
VERTEX
8
PICTURE
10
-42.427353
20
-5.494943
30
13.407628
70
192
0
VERTEX
8
PICTURE
10
-42.557526
20
-5.559715
30
13.277463
70
192
0
VERTEX
8
PICTURE
10
-42.710243
20
-5.587428
30
13.124745
70
192
0
VERTEX
8
PICTURE
10
43.876041
20
-5.589469
30
12.938985
70
192
0
VERTEX
8
PICTURE
10
43.925583
20
-5.844245
30
12.889447
70
192
0
VERTEX
8
PICTURE
10
44.004623
20
-6.065146
30
12.810407
70
192
0
VERTEX
8
PICTURE
10
44.128639
20
-6.260075
30
12.686399
70
192
0
VERTEX
8
PICTURE
10
44.291260
20
-6.422703
30
12.523763
70
192
0
VERTEX
8
PICTURE
10
44.486195
20
-6.546702
30
12.328832
70
192
0
VERTEX
8
PICTURE
10
44.707077
20
-6.625743
30
12.107945
70
192
0
VERTEX
8
PICTURE
10
44.947639
20
-6.653497
30
11.867383
70
192
0
VERTEX
8
PICTURE
10
45.188179
20
-6.625743
30
11.626843
70
192
0
VERTEX
8
PICTURE
10
45.409065
20
-6.546703
30
11.405957
70
192
0
VERTEX
8
PICTURE
10
45.604000
20
-6.422703
30
11.211026
70
192
0
VERTEX
8
PICTURE
10
45.766628
20
-6.260075
30
11.048398
70
192
0
VERTEX
8
PICTURE
10
45.890640
20
-6.065145
30
10.924390
70
192
0
VERTEX
8
PICTURE
10
45.969677
20
-5.844244
30
10.845349
70
192
0
VERTEX
8
PICTURE
10
45.997429
20
-5.603701
30
10.817601
70
192
0
VERTEX
8
PICTURE
10
48.148460
20
-5.603701
30
8.666562
70
192
0
VERTEX
8
PICTURE
10
48.148460
20
-6.295107
30
8.666562
70
192
0
VERTEX
8
PICTURE
10
48.916695
20
-6.295107
30
7.898336
70
192
0
VERTEX
8
PICTURE
10
48.916695
20
-7.140158
30
7.898336
70
192
0
VERTEX
8
PICTURE
10
49.461235
20
-7.144797
30
7.353788
70
192
0
VERTEX
8
PICTURE
10
49.881264
20
-7.284088
30
6.933759
70
192
0
VERTEX
8
PICTURE
10
50.198486
20
-7.538330
30
6.616529
70
192
0
VERTEX
8
PICTURE
10
50.434654
20
-7.887828
30
6.380369
70
192
0
VERTEX
8
PICTURE
10
50.611469
20
-8.312885
30
6.203557
70
192
0
VERTEX
8
PICTURE
10
52.124233
20
-8.312890
30
4.690794
70
192
0
VERTEX
8
PICTURE
10
52.124233
20
-2.314316
30
4.690794
70
192
0
VERTEX
8
PICTURE
10
41.200012
20
-2.314317
30
15.615018
70
192
0
VERTEX
8
PICTURE
10
41.200012
20
-4.611170
30
15.615018
70
192
0
VERTEX
8
PICTURE
10
42.079453
20
-4.611170
30
14.735578
70
192
0
VERTEX
8
PICTURE
10
42.425156
20
-5.186385
30
14.389867
70
192
0
VERTEX
8
PICTURE
10
43.206955
20
-5.186385
30
13.608068
70
192
0
VERTEX
8
PICTURE
10
43.241028
20
-5.312709
30
13.573995
70
192
0
VERTEX
8
PICTURE
10
43.310642
20
-5.415254
30
13.504376
70
192
0
VERTEX
8
PICTURE
10
43.407394
20
-5.494943
30
13.407628
70
192
0
VERTEX
8
PICTURE
10
43.537563
20
-5.559715
30
13.277463
70
192
0
VERTEX
8
PICTURE
10
43.690277
20
-5.587428
30
13.124745
70
192
0
VERTEX
8
PICTURE
10
-42.896004
20
-5.589472
30
77.061050
70
192
0
VERTEX
8
PICTURE
10
-42.945541
20
-5.844248
30
77.110596
70
192
0
VERTEX
8
PICTURE
10
-43.024582
20
-6.065149
30
77.189636
70
192
0
VERTEX
8
PICTURE
10
-43.148590
20
-6.260078
30
77.313644
70
192
0
VERTEX
8
PICTURE
10
-43.311218
20
-6.422707
30
77.476273
70
192
0
VERTEX
8
PICTURE
10
-43.506149
20
-6.546706
30
77.671204
70
192
0
VERTEX
8
PICTURE
10
-43.727036
20
-6.625746
30
77.892090
70
192
0
VERTEX
8
PICTURE
10
-43.967606
20
-6.653499
30
78.132652
70
192
0
VERTEX
8
PICTURE
10
-44.208138
20
-6.625746
30
78.373192
70
192
0
VERTEX
8
PICTURE
10
-44.429031
20
-6.546706
30
78.594086
70
192
0
VERTEX
8
PICTURE
10
-44.623962
20
-6.422706
30
78.789017
70
192
0
VERTEX
8
PICTURE
10
-44.786591
20
-6.260077
30
78.951645
70
192
0
VERTEX
8
PICTURE
10
-44.910606
20
-6.065148
30
79.075653
70
192
0
VERTEX
8
PICTURE
10
-44.989647
20
-5.844248
30
79.154694
70
192
0
VERTEX
8
PICTURE
10
-45.017395
20
-5.603704
30
79.182442
70
192
0
VERTEX
8
PICTURE
10
-47.168427
20
-5.603704
30
81.333473
70
192
0
VERTEX
8
PICTURE
10
-47.168427
20
-6.295110
30
81.333473
70
192
0
VERTEX
8
PICTURE
10
-47.936661
20
-6.295110
30
82.101700
70
192
0
VERTEX
8
PICTURE
10
-47.936661
20
-7.140162
30
82.101700
70
192
0
VERTEX
8
PICTURE
10
-48.481201
20
-7.144801
30
82.646248
70
192
0
VERTEX
8
PICTURE
10
-48.901230
20
-7.284091
30
83.066277
70
192
0
VERTEX
8
PICTURE
10
-49.218460
20
-7.538334
30
83.383507
70
192
0
VERTEX
8
PICTURE
10
-49.454620
20
-7.887832
30
83.619667
70
192
0
VERTEX
8
PICTURE
10
-49.631447
20
-8.312888
30
83.796478
70
192
0
VERTEX
8
PICTURE
10
-51.144203
20
-8.312892
30
85.309250
70
192
0
VERTEX
8
PICTURE
10
-51.144203
20
-2.314319
30
85.309250
70
192
0
VERTEX
8
PICTURE
10
-40.219971
20
-2.314319
30
74.385017
70
192
0
VERTEX
8
PICTURE
10
-40.219971
20
-4.611173
30
74.385017
70
192
0
VERTEX
8
PICTURE
10
-41.099411
20
-4.611173
30
75.264465
70
192
0
VERTEX
8
PICTURE
10
-41.445122
20
-5.186388
30
75.610168
70
192
0
VERTEX
8
PICTURE
10
-42.226921
20
-5.186388
30
76.391975
70
192
0
VERTEX
8
PICTURE
10
-42.260986
20
-5.312712
30
76.426041
70
192
0
VERTEX
8
PICTURE
10
-42.330612
20
-5.415257
30
76.495667
70
192
0
VERTEX
8
PICTURE
10
-42.427361
20
-5.494946
30
76.592407
70
192
0
VERTEX
8
PICTURE
10
-42.557526
20
-5.559718
30
76.722572
70
192
0
VERTEX
8
PICTURE
10
-42.710243
20
-5.587431
30
76.875290
70
192
0
VERTEX
8
PICTURE
10
43.876038
20
-5.589472
30
77.061050
70
192
0
VERTEX
8
PICTURE
10
43.925579
20
-5.844248
30
77.110596
70
192
0
VERTEX
8
PICTURE
10
44.004623
20
-6.065149
30
77.189636
70
192
0
VERTEX
8
PICTURE
10
44.128635
20
-6.260078
30
77.313644
70
192
0
VERTEX
8
PICTURE
10
44.291256
20
-6.422707
30
77.476273
70
192
0
VERTEX
8
PICTURE
10
44.486195
20
-6.546705
30
77.671204
70
192
0
VERTEX
8
PICTURE
10
44.707077
20
-6.625746
30
77.892090
70
192
0
VERTEX
8
PICTURE
10
44.947639
20
-6.653500
30
78.132652
70
192
0
VERTEX
8
PICTURE
10
45.188179
20
-6.625746
30
78.373192
70
192
0
VERTEX
8
PICTURE
10
45.409065
20
-6.546706
30
78.594086
70
192
0
VERTEX
8
PICTURE
10
45.604000
20
-6.422706
30
78.789017
70
192
0
VERTEX
8
PICTURE
10
45.766628
20
-6.260077
30
78.951645
70
192
0
VERTEX
8
PICTURE
10
45.890640
20
-6.065148
30
79.075653
70
192
0
VERTEX
8
PICTURE
10
45.969677
20
-5.844247
30
79.154694
70
192
0
VERTEX
8
PICTURE
10
45.997429
20
-5.603704
30
79.182442
70
192
0
VERTEX
8
PICTURE
10
48.148460
20
-5.603704
30
81.333473
70
192
0
VERTEX
8
PICTURE
10
48.148460
20
-6.295111
30
81.333473
70
192
0
VERTEX
8
PICTURE
10
48.916695
20
-6.295110
30
82.101707
70
192
0
VERTEX
8
PICTURE
10
48.916695
20
-7.140162
30
82.101700
70
192
0
VERTEX
8
PICTURE
10
49.461235
20
-7.144801
30
82.646248
70
192
0
VERTEX
8
PICTURE
10
49.881260
20
-7.284091
30
83.066277
70
192
0
VERTEX
8
PICTURE
10
50.198486
20
-7.538333
30
83.383507
70
192
0
VERTEX
8
PICTURE
10
50.434650
20
-7.887832
30
83.619667
70
192
0
VERTEX
8
PICTURE
10
50.611469
20
-8.312888
30
83.796486
70
192
0
VERTEX
8
PICTURE
10
52.124233
20
-8.312894
30
85.309250
70
192
0
VERTEX
8
PICTURE
10
52.124237
20
-2.314319
30
85.309250
70
192
0
VERTEX
8
PICTURE
10
41.200008
20
-2.314319
30
74.385017
70
192
0
VERTEX
8
PICTURE
10
41.200008
20
-4.611173
30
74.385017
70
192
0
VERTEX
8
PICTURE
10
42.079449
20
-4.611173
30
75.264465
70
192
0
VERTEX
8
PICTURE
10
42.425152
20
-5.186388
30
75.610168
70
192
0
VERTEX
8
PICTURE
10
43.206951
20
-5.186388
30
76.391968
70
192
0
VERTEX
8
PICTURE
10
43.241024
20
-5.312712
30
76.426041
70
192
0
VERTEX
8
PICTURE
10
43.310642
20
-5.415257
30
76.495667
70
192
0
VERTEX
8
PICTURE
10
43.407391
20
-5.494946
30
76.592407
70
192
0
VERTEX
8
PICTURE
10
43.537560
20
-5.559718
30
76.722572
70
192
0
VERTEX
8
PICTURE
10
43.690277
20
-5.587430
30
76.875290
70
192
0
VERTEX
8
PICTURE
10
-42.896004
20
-5.589472
30
77.061050
70
192
0
VERTEX
8
PICTURE
10
-42.945549
20
-5.844248
30
77.110588
70
192
0
VERTEX
8
PICTURE
10
-43.024590
20
-6.065149
30
77.189629
70
192
0
VERTEX
8
PICTURE
10
-43.148598
20
-6.260078
30
77.313637
70
192
0
VERTEX
8
PICTURE
10
-43.311226
20
-6.422707
30
77.476265
70
192
0
VERTEX
8
PICTURE
10
-43.506157
20
-6.546705
30
77.671196
70
192
0
VERTEX
8
PICTURE
10
-43.727043
20
-6.625746
30
77.892082
70
192
0
VERTEX
8
PICTURE
10
-43.967606
20
-6.653499
30
78.132652
70
192
0
VERTEX
8
PICTURE
10
-44.208145
20
-6.625746
30
78.373184
70
192
0
VERTEX
8
PICTURE
10
-44.429031
20
-6.546706
30
78.594078
70
192
0
VERTEX
8
PICTURE
10
-44.623962
20
-6.422706
30
78.789009
70
192
0
VERTEX
8
PICTURE
10
-44.786591
20
-6.260077
30
78.951637
70
192
0
VERTEX
8
PICTURE
10
-44.910599
20
-6.065148
30
79.075653
70
192
0
VERTEX
8
PICTURE
10
-44.989639
20
-5.844248
30
79.154694
70
192
0
VERTEX
8
PICTURE
10
-45.017395
20
-5.603704
30
79.182442
70
192
0
VERTEX
8
PICTURE
10
-47.168427
20
-5.603704
30
81.333466
70
192
0
VERTEX
8
PICTURE
10
-47.168427
20
-6.295110
30
81.333466
70
192
0
VERTEX
8
PICTURE
10
-47.936653
20
-6.295110
30
82.101707
70
192
0
VERTEX
8
PICTURE
10
-47.936653
20
-7.140162
30
82.101707
70
192
0
VERTEX
8
PICTURE
10
-48.481201
20
-7.144801
30
82.646248
70
192
0
VERTEX
8
PICTURE
10
-48.901230
20
-7.284091
30
83.066277
70
192
0
VERTEX
8
PICTURE
10
-49.218460
20
-7.538333
30
83.383507
70
192
0
VERTEX
8
PICTURE
10
-49.454620
20
-7.887832
30
83.619667
70
192
0
VERTEX
8
PICTURE
10
-49.631432
20
-8.312888
30
83.796486
70
192
0
VERTEX
8
PICTURE
10
-51.144203
20
-8.312892
30
85.309250
70
192
0
VERTEX
8
PICTURE
10
-51.144203
20
-2.314319
30
85.309242
70
192
0
VERTEX
8
PICTURE
10
-40.219971
20
-2.314319
30
74.385017
70
192
0
VERTEX
8
PICTURE
10
-40.219971
20
-4.611173
30
74.385017
70
192
0
VERTEX
8
PICTURE
10
-41.099419
20
-4.611173
30
75.264458
70
192
0
VERTEX
8
PICTURE
10
-41.445122
20
-5.186388
30
75.610161
70
192
0
VERTEX
8
PICTURE
10
-42.226921
20
-5.186388
30
76.391960
70
192
0
VERTEX
8
PICTURE
10
-42.260994
20
-5.312712
30
76.426033
70
192
0
VERTEX
8
PICTURE
10
-42.330612
20
-5.415257
30
76.495651
70
192
0
VERTEX
8
PICTURE
10
-42.427361
20
-5.494946
30
76.592400
70
192
0
VERTEX
8
PICTURE
10
-42.557526
20
-5.559718
30
76.722572
70
192
0
VERTEX
8
PICTURE
10
-42.710251
20
-5.587430
30
76.875282
70
192
0
VERTEX
8
PICTURE
10
-42.896004
20
-5.589469
30
12.938993
70
192
0
VERTEX
8
PICTURE
10
-42.945541
20
-5.844245
30
12.889447
70
192
0
VERTEX
8
PICTURE
10
-43.024582
20
-6.065146
30
12.810407
70
192
0
VERTEX
8
PICTURE
10
-43.148590
20
-6.260075
30
12.686391
70
192
0
VERTEX
8
PICTURE
10
-43.311226
20
-6.422704
30
12.523770
70
192
0
VERTEX
8
PICTURE
10
-43.506157
20
-6.546702
30
12.328832
70
192
0
VERTEX
8
PICTURE
10
-43.727043
20
-6.625743
30
12.107953
70
192
0
VERTEX
8
PICTURE
10
-43.967606
20
-6.653496
30
11.867391
70
192
0
VERTEX
8
PICTURE
10
-44.208145
20
-6.625743
30
11.626851
70
192
0
VERTEX
8
PICTURE
10
-44.429031
20
-6.546703
30
11.405965
70
192
0
VERTEX
8
PICTURE
10
-44.623962
20
-6.422703
30
11.211026
70
192
0
VERTEX
8
PICTURE
10
-44.786591
20
-6.260075
30
11.048406
70
192
0
VERTEX
8
PICTURE
10
-44.910599
20
-6.065145
30
10.924390
70
192
0
VERTEX
8
PICTURE
10
-44.989639
20
-5.844244
30
10.845357
70
192
0
VERTEX
8
PICTURE
10
-45.017387
20
-5.603701
30
10.817601
70
192
0
VERTEX
8
PICTURE
10
-47.168427
20
-5.603701
30
8.666570
70
192
0
VERTEX
8
PICTURE
10
-47.168427
20
-6.295107
30
8.666570
70
192
0
VERTEX
8
PICTURE
10
-47.936653
20
-6.295107
30
7.898335
70
192
0
VERTEX
8
PICTURE
10
-47.936653
20
-7.140158
30
7.898335
70
192
0
VERTEX
8
PICTURE
10
-48.481201
20
-7.144797
30
7.353795
70
192
0
VERTEX
8
PICTURE
10
-48.901230
20
-7.284088
30
6.933766
70
192
0
VERTEX
8
PICTURE
10
-49.218460
20
-7.538330
30
6.616543
70
192
0
VERTEX
8
PICTURE
10
-49.454620
20
-7.887828
30
6.380375
70
192
0
VERTEX
8
PICTURE
10
-49.631432
20
-8.312884
30
6.203557
70
192
0
VERTEX
8
PICTURE
10
-51.144196
20
-8.312890
30
4.690792
70
192
0
VERTEX
8
PICTURE
10
-51.144196
20
-2.314316
30
4.690792
70
192
0
VERTEX
8
PICTURE
10
-40.219971
20
-2.314317
30
15.615018
70
192
0
VERTEX
8
PICTURE
10
-40.219971
20
-4.611170
30
15.615018
70
192
0
VERTEX
8
PICTURE
10
-41.099411
20
-4.611170
30
14.735578
70
192
0
VERTEX
8
PICTURE
10
-41.445122
20
-5.186385
30
14.389874
70
192
0
VERTEX
8
PICTURE
10
-42.226921
20
-5.186385
30
13.608075
70
192
0
VERTEX
8
PICTURE
10
-42.260994
20
-5.312709
30
13.574002
70
192
0
VERTEX
8
PICTURE
10
-42.330612
20
-5.415254
30
13.504384
70
192
0
VERTEX
8
PICTURE
10
-42.427361
20
-5.494943
30
13.407636
70
192
0
VERTEX
8
PICTURE
10
-42.557526
20
-5.559715
30
13.277471
70
192
0
VERTEX
8
PICTURE
10
-42.710243
20
-5.587428
30
13.124753
70
192
0
VERTEX
8
PICTURE
10
43.876045
20
-5.589472
30
77.061050
70
192
0
VERTEX
8
PICTURE
10
43.925587
20
-5.844248
30
77.110596
70
192
0
VERTEX
8
PICTURE
10
44.004627
20
-6.065149
30
77.189636
70
192
0
VERTEX
8
PICTURE
10
44.128635
20
-6.260078
30
77.313644
70
192
0
VERTEX
8
PICTURE
10
44.291264
20
-6.422706
30
77.476273
70
192
0
VERTEX
8
PICTURE
10
44.486195
20
-6.546705
30
77.671204
70
192
0
VERTEX
8
PICTURE
10
44.707081
20
-6.625746
30
77.892090
70
192
0
VERTEX
8
PICTURE
10
44.947643
20
-6.653499
30
78.132652
70
192
0
VERTEX
8
PICTURE
10
45.188183
20
-6.625746
30
78.373184
70
192
0
VERTEX
8
PICTURE
10
45.409073
20
-6.546706
30
78.594078
70
192
0
VERTEX
8
PICTURE
10
45.604004
20
-6.422706
30
78.789009
70
192
0
VERTEX
8
PICTURE
10
45.766636
20
-6.260077
30
78.951645
70
192
0
VERTEX
8
PICTURE
10
45.890644
20
-6.065148
30
79.075653
70
192
0
VERTEX
8
PICTURE
10
45.969685
20
-5.844247
30
79.154694
70
192
0
VERTEX
8
PICTURE
10
45.997437
20
-5.603704
30
79.182442
70
192
0
VERTEX
8
PICTURE
10
48.148464
20
-5.603704
30
81.333473
70
192
0
VERTEX
8
PICTURE
10
48.148464
20
-6.295110
30
81.333473
70
192
0
VERTEX
8
PICTURE
10
48.916695
20
-6.295110
30
82.101707
70
192
0
VERTEX
8
PICTURE
10
48.916695
20
-7.140162
30
82.101707
70
192
0
VERTEX
8
PICTURE
10
49.461243
20
-7.144801
30
82.646248
70
192
0
VERTEX
8
PICTURE
10
49.881268
20
-7.284091
30
83.066277
70
192
0
VERTEX
8
PICTURE
10
50.198498
20
-7.538333
30
83.383507
70
192
0
VERTEX
8
PICTURE
10
50.434658
20
-7.887832
30
83.619667
70
192
0
VERTEX
8
PICTURE
10
50.611473
20
-8.312888
30
83.796494
70
192
0
VERTEX
8
PICTURE
10
52.124245
20
-8.312892
30
85.309258
70
192
0
VERTEX
8
PICTURE
10
52.124245
20
-2.314319
30
85.309250
70
192
0
VERTEX
8
PICTURE
10
41.200012
20
-2.314319
30
74.385017
70
192
0
VERTEX
8
PICTURE
10
41.200012
20
-4.611173
30
74.385017
70
192
0
VERTEX
8
PICTURE
10
42.079453
20
-4.611173
30
75.264465
70
192
0
VERTEX
8
PICTURE
10
42.425159
20
-5.186388
30
75.610168
70
192
0
VERTEX
8
PICTURE
10
43.206963
20
-5.186388
30
76.391968
70
192
0
VERTEX
8
PICTURE
10
43.241035
20
-5.312712
30
76.426041
70
192
0
VERTEX
8
PICTURE
10
43.310654
20
-5.415257
30
76.495659
70
192
0
VERTEX
8
PICTURE
10
43.407398
20
-5.494946
30
76.592407
70
192
0
VERTEX
8
PICTURE
10
43.537567
20
-5.559718
30
76.722572
70
192
0
VERTEX
8
PICTURE
10
43.690285
20
-5.587430
30
76.875290
70
192
0
VERTEX
8
PICTURE
10
43.876049
20
-5.589469
30
12.938993
70
192
0
VERTEX
8
PICTURE
10
43.925587
20
-5.844245
30
12.889455
70
192
0
VERTEX
8
PICTURE
10
44.004627
20
-6.065146
30
12.810414
70
192
0
VERTEX
8
PICTURE
10
44.128635
20
-6.260075
30
12.686391
70
192
0
VERTEX
8
PICTURE
10
44.291267
20
-6.422703
30
12.523770
70
192
0
VERTEX
8
PICTURE
10
44.486198
20
-6.546702
30
12.328839
70
192
0
VERTEX
8
PICTURE
10
44.707085
20
-6.625743
30
12.107953
70
192
0
VERTEX
8
PICTURE
10
44.947643
20
-6.653496
30
11.867398
70
192
0
VERTEX
8
PICTURE
10
45.188183
20
-6.625743
30
11.626859
70
192
0
VERTEX
8
PICTURE
10
45.409077
20
-6.546703
30
11.405972
70
192
0
VERTEX
8
PICTURE
10
45.604008
20
-6.422703
30
11.211034
70
192
0
VERTEX
8
PICTURE
10
45.766636
20
-6.260075
30
11.048406
70
192
0
VERTEX
8
PICTURE
10
45.890644
20
-6.065145
30
10.924397
70
192
0
VERTEX
8
PICTURE
10
45.969685
20
-5.844244
30
10.845357
70
192
0
VERTEX
8
PICTURE
10
45.997437
20
-5.603701
30
10.817601
70
192
0
VERTEX
8
PICTURE
10
48.148464
20
-5.603701
30
8.666577
70
192
0
VERTEX
8
PICTURE
10
48.148464
20
-6.295107
30
8.666577
70
192
0
VERTEX
8
PICTURE
10
48.916695
20
-6.295107
30
7.898336
70
192
0
VERTEX
8
PICTURE
10
48.916695
20
-7.140158
30
7.898336
70
192
0
VERTEX
8
PICTURE
10
49.461243
20
-7.144797
30
7.353796
70
192
0
VERTEX
8
PICTURE
10
49.881268
20
-7.284088
30
6.933774
70
192
0
VERTEX
8
PICTURE
10
50.198498
20
-7.538330
30
6.616544
70
192
0
VERTEX
8
PICTURE
10
50.434658
20
-7.887828
30
6.380384
70
192
0
VERTEX
8
PICTURE
10
50.611473
20
-8.312885
30
6.203565
70
192
0
VERTEX
8
PICTURE
10
52.124245
20
-8.312890
30
4.690794
70
192
0
VERTEX
8
PICTURE
10
52.124245
20
-2.314316
30
4.690794
70
192
0
VERTEX
8
PICTURE
10
41.200012
20
-2.314317
30
15.615026
70
192
0
VERTEX
8
PICTURE
10
41.200012
20
-4.611171
30
15.615026
70
192
0
VERTEX
8
PICTURE
10
42.079456
20
-4.611171
30
14.735585
70
192
0
VERTEX
8
PICTURE
10
42.425163
20
-5.186385
30
14.389874
70
192
0
VERTEX
8
PICTURE
10
43.206963
20
-5.186385
30
13.608083
70
192
0
VERTEX
8
PICTURE
10
43.241035
20
-5.312709
30
13.574010
70
192
0
VERTEX
8
PICTURE
10
43.310658
20
-5.415254
30
13.504392
70
192
0
VERTEX
8
PICTURE
10
43.407402
20
-5.494943
30
13.407636
70
192
0
VERTEX
8
PICTURE
10
43.537567
20
-5.559715
30
13.277471
70
192
0
VERTEX
8
PICTURE
10
43.690285
20
-5.587428
30
13.124753
70
192
0
VERTEX
8
PICTURE
10
-35.025173
20
-4.347459
30
21.027258
70
192
0
VERTEX
8
PICTURE
10
36.005207
20
-4.347460
30
21.027256
70
192
0
VERTEX
8
PICTURE
10
36.005215
20
-4.347460
30
68.972778
70
192
0
VERTEX
8
PICTURE
10
-35.025169
20
-4.347459
30
68.972778
70
192
0
VERTEX
8
PICTURE
10
0
20
0
30
0
70
128
71
1
72
2
73
-3
0
VERTEX
8
PICTURE
10
0
20
0
30
0
70
128
71
-1
72
3
73
4
0
VERTEX
8
PICTURE
10
0
20
0
30
0
70
128
71
1
72
5
73
-6
0
VERTEX
8
PICTURE
10
0
20
0
30
0
70
128
71
-1
72
6
73
2
0
VERTEX
8
PICTURE
10
0
20
0
30
0
70
128
71
2
72
6
73
-7
0
VERTEX
8
PICTURE
10
0
20
0
30
0
70
128
71
-2
72
7
73
3
0
VERTEX
8
PICTURE
10
0
20
0
30
0
70
128
71
3
72
7
73
-8
0
VERTEX
8
PICTURE
10
0
20
0
30
0
70
128
71
-3
72
8
73
4
0
VERTEX
8
PICTURE
10
0
20
0
30
0
70
128
71
4
72
8
73
-5
0
VERTEX
8
PICTURE
10
0
20
0
30
0
70
128
71
-4
72
5
73
1
0
VERTEX
8
PICTURE
10
0
20
0
30
0
70
128
71
5
72
8
73
-7
0
VERTEX
8
PICTURE
10
0
20
0
30
0
70
128
71
-5
72
7
73
6
0
VERTEX
8
PICTURE
10
0
20
0
30
0
70
128
71
9
72
-10
73
45
0
VERTEX
8
PICTURE
10
0
20
0
30
0
70
128
71
46
72
-45
73
10
0
VERTEX
8
PICTURE
10
0
20
0
30
0
70
128
71
10
72
-11
73
46
0
VERTEX
8
PICTURE
10
0
20
0
30
0
70
128
71
47
72
-46
73
11
0
VERTEX
8
PICTURE
10
0
20
0
30
0
70
128
71
11
72
-12
73
47
0
VERTEX
8
PICTURE
10
0
20
0
30
0
70
128
71
48
72
-47
73
12
0
VERTEX
8
PICTURE
10
0
20
0
30
0
70
128
71
12
72
-13
73
48
0
VERTEX
8
PICTURE
10
0
20
0
30
0
70
128
71
49
72
-48
73
13
0
VERTEX
8
PICTURE
10
0
20
0
30
0
70
128
71
13
72
-14
73
49
0
VERTEX
8
PICTURE
10
0
20
0
30
0
70
128
71
50
72
-49
73
14
0
VERTEX
8
PICTURE
10
0
20
0
30
0
70
128
71
14
72
-15
73
50
0
VERTEX
8
PICTURE
10
0
20
0
30
0
70
128
71
51
72
-50
73
15
0
VERTEX
8
PICTURE
10
0
20
0
30
0
70
128
71
15
72
-16
73
51
0
VERTEX
8
PICTURE
10
0
20
0
30
0
70
128
71
52
72
-51
73
16
0
VERTEX
8
PICTURE
10
0
20
0
30
0
70
128
71
16
72
-17
73
52
0
VERTEX
8
PICTURE
10
0
20
0
30
0
70
128
71
53
72
-52
73
17
0
VERTEX
8
PICTURE
10
0
20
0
30
0
70
128
71
17
72
-18
73
53
0
VERTEX
8
PICTURE
10
0
20
0
30
0
70
128
71
54
72
-53
73
18
0
VERTEX
8
PICTURE
10
0
20
0
30
0
70
128
71
18
72
-19
73
54
0
VERTEX
8
PICTURE
10
0
20
0
30
0
70
128
71
55
72
-54
73
19
0
VERTEX
8
PICTURE
10
0
20
0
30
0
70
128
71
19
72
-20
73
55
0
VERTEX
8
PICTURE
10
0
20
0
30
0
70
128
71
56
72
-55
73
20
0
VERTEX
8
PICTURE
10
0
20
0
30
0
70
128
71
20
72
-21
73
56
0
VERTEX
8
PICTURE
10
0
20
0
30
0
70
128
71
57
72
-56
73
21
0
VERTEX
8
PICTURE
10
0
20
0
30
0
70
128
71
21
72
-22
73
57
0
VERTEX
8
PICTURE
10
0
20
0
30
0
70
128
71
58
72
-57
73
22
0
VERTEX
8
PICTURE
10
0
20
0
30
0
70
128
71
22
72
-23
73
58
0
VERTEX
8
PICTURE
10
0
20
0
30
0
70
128
71
59
72
-58
73
23
0
VERTEX
8
PICTURE
10
0
20
0
30
0
70
128
71
23
72
-24
73
59
0
VERTEX
8
PICTURE
10
0
20
0
30
0
70
128
71
60
72
-59
73
24
0
VERTEX
8
PICTURE
10
0
20
0
30
0
70
128
71
24
72
-25
73
60
0
VERTEX
8
PICTURE
10
0
20
0
30
0
70
128
71
61
72
-60
73
25
0
VERTEX
8
PICTURE
10
0
20
0
30
0
70
128
71
25
72
-26
73
61
0
VERTEX
8
PICTURE
10
0
20
0
30
0
70
128
71
62
72
-61
73
26
0
VERTEX
8
PICTURE
10
0
20
0
30
0
70
128
71
26
72
-27
73
62
0
VERTEX
8
PICTURE
10
0
20
0
30
0
70
128
71
63
72
-62
73
27
0
VERTEX
8
PICTURE
10
0
20
0
30
0
70
128
71
27
72
-28
73
63
0
VERTEX
8
PICTURE
10
0
20
0
30
0
70
128
71
64
72
-63
73
28
0
VERTEX
8
PICTURE
10
0
20
0
30
0
70
128
71
28
72
-29
73
64
0
VERTEX
8
PICTURE
10
0
20
0
30
0
70
128
71
65
72
-64
73
29
0
VERTEX
8
PICTURE
10
0
20
0
30
0
70
128
71
29
72
-30
73
65
0
VERTEX
8
PICTURE
10
0
20
0
30
0
70
128
71
66
72
-65
73
30
0
VERTEX
8
PICTURE
10
0
20
0
30
0
70
128
71
30
72
-31
73
66
0
VERTEX
8
PICTURE
10
0
20
0
30
0
70
128
71
67
72
-66
73
31
0
VERTEX
8
PICTURE
10
0
20
0
30
0
70
128
71
31
72
-32
73
67
0
VERTEX
8
PICTURE
10
0
20
0
30
0
70
128
71
68
72
-67
73
32
0
VERTEX
8
PICTURE
10
0
20
0
30
0
70
128
71
32
72
-33
73
68
0
VERTEX
8
PICTURE
10
0
20
0
30
0
70
128
71
69
72
-68
73
33
0
VERTEX
8
PICTURE
10
0
20
0
30
0
70
128
71
33
72
-34
73
69
0
VERTEX
8
PICTURE
10
0
20
0
30
0
70
128
71
70
72
-69
73
34
0
VERTEX
8
PICTURE
10
0
20
0
30
0
70
128
71
34
72
-35
73
70
0
VERTEX
8
PICTURE
10
0
20
0
30
0
70
128
71
71
72
-70
73
35
0
VERTEX
8
PICTURE
10
0
20
0
30
0
70
128
71
35
72
-36
73
71
0
VERTEX
8
PICTURE
10
0
20
0
30
0
70
128
71
72
72
-71
73
36
0
VERTEX
8
PICTURE
10
0
20
0
30
0
70
128
71
36
72
-37
73
72
0
VERTEX
8
PICTURE
10
0
20
0
30
0
70
128
71
73
72
-72
73
37
0
VERTEX
8
PICTURE
10
0
20
0
30
0
70
128
71
37
72
-38
73
73
0
VERTEX
8
PICTURE
10
0
20
0
30
0
70
128
71
74
72
-73
73
38
0
VERTEX
8
PICTURE
10
0
20
0
30
0
70
128
71
38
72
-39
73
74
0
VERTEX
8
PICTURE
10
0
20
0
30
0
70
128
71
75
72
-74
73
39
0
VERTEX
8
PICTURE
10
0
20
0
30
0
70
128
71
39
72
-40
73
75
0
VERTEX
8
PICTURE
10
0
20
0
30
0
70
128
71
76
72
-75
73
40
0
VERTEX
8
PICTURE
10
0
20
0
30
0
70
128
71
40
72
-41
73
76
0
VERTEX
8
PICTURE
10
0
20
0
30
0
70
128
71
77
72
-76
73
41
0
VERTEX
8
PICTURE
10
0
20
0
30
0
70
128
71
41
72
-42
73
77
0
VERTEX
8
PICTURE
10
0
20
0
30
0
70
128
71
78
72
-77
73
42
0
VERTEX
8
PICTURE
10
0
20
0
30
0
70
128
71
42
72
-43
73
78
0
VERTEX
8
PICTURE
10
0
20
0
30
0
70
128
71
79
72
-78
73
43
0
VERTEX
8
PICTURE
10
0
20
0
30
0
70
128
71
43
72
-44
73
79
0
VERTEX
8
PICTURE
10
0
20
0
30
0
70
128
71
80
72
-79
73
44
0
VERTEX
8
PICTURE
10
0
20
0
30
0
70
128
71
44
72
-9
73
80
0
VERTEX
8
PICTURE
10
0
20
0
30
0
70
128
71
45
72
-80
73
9
0
VERTEX
8
PICTURE
10
0
20
0
30
0
70
128
71
-23
72
-9
73
-34
0
VERTEX
8
PICTURE
10
0
20
0
30
0
70
128
71
59
72
-60
73
-70
0
VERTEX
8
PICTURE
10
0
20
0
30
0
70
128
71
-9
72
11
73
10
0
VERTEX
8
PICTURE
10
0
20
0
30
0
70
128
71
-9
72
13
73
-12
0
VERTEX
8
PICTURE
10
0
20
0
30
0
70
128
71
-9
72
15
73
-14
0
VERTEX
8
PICTURE
10
0
20
0
30
0
70
128
71
-9
72
17
73
-16
0
VERTEX
8
PICTURE
10
0
20
0
30
0
70
128
71
-9
72
19
73
-18
0
VERTEX
8
PICTURE
10
0
20
0
30
0
70
128
71
-9
72
21
73
-20
0
VERTEX
8
PICTURE
10
0
20
0
30
0
70
128
71
-9
72
23
73
-22
0
VERTEX
8
PICTURE
10
0
20
0
30
0
70
128
71
-24
72
26
73
25
0
VERTEX
8
PICTURE
10
0
20
0
30
0
70
128
71
-26
72
28
73
27
0
VERTEX
8
PICTURE
10
0
20
0
30
0
70
128
71
-31
72
33
73
32
0
VERTEX
8
PICTURE
10
0
20
0
30
0
70
128
71
37
72
36
73
-35
0
VERTEX
8
PICTURE
10
0
20
0
30
0
70
128
71
-37
72
39
73
38
0
VERTEX
8
PICTURE
10
0
20
0
30
0
70
128
71
-39
72
41
73
40
0
VERTEX
8
PICTURE
10
0
20
0
30
0
70
128
71
-39
72
43
73
-42
0
VERTEX
8
PICTURE
10
0
20
0
30
0
70
128
71
-39
72
9
73
-44
0
VERTEX
8
PICTURE
10
0
20
0
30
0
70
128
71
-9
72
12
73
-11
0
VERTEX
8
PICTURE
10
0
20
0
30
0
70
128
71
-9
72
16
73
-15
0
VERTEX
8
PICTURE
10
0
20
0
30
0
70
128
71
-9
72
20
73
-19
0
VERTEX
8
PICTURE
10
0
20
0
30
0
70
128
71
-34
72
29
73
-28
0
VERTEX
8
PICTURE
10
0
20
0
30
0
70
128
71
34
72
-33
73
-31
0
VERTEX
8
PICTURE
10
0
20
0
30
0
70
128
71
-39
72
-37
73
-35
0
VERTEX
8
PICTURE
10
0
20
0
30
0
70
128
71
-39
72
42
73
-41
0
VERTEX
8
PICTURE
10
0
20
0
30
0
70
128
71
-9
72
14
73
-13
0
VERTEX
8
PICTURE
10
0
20
0
30
0
70
128
71
-9
72
22
73
-21
0
VERTEX
8
PICTURE
10
0
20
0
30
0
70
128
71
-34
72
30
73
-29
0
VERTEX
8
PICTURE
10
0
20
0
30
0
70
128
71
-30
72
-34
73
31
0
VERTEX
8
PICTURE
10
0
20
0
30
0
70
128
71
-9
72
-39
73
-34
0
VERTEX
8
PICTURE
10
0
20
0
30
0
70
128
71
-39
72
44
73
-43
0
VERTEX
8
PICTURE
10
0
20
0
30
0
70
128
71
-9
72
18
73
-17
0
VERTEX
8
PICTURE
10
0
20
0
30
0
70
128
71
-26
72
-34
73
-28
0
VERTEX
8
PICTURE
10
0
20
0
30
0
70
128
71
-34
72
-39
73
35
0
VERTEX
8
PICTURE
10
0
20
0
30
0
70
128
71
-34
72
24
73
-23
0
VERTEX
8
PICTURE
10
0
20
0
30
0
70
128
71
-24
72
-34
73
-26
0
VERTEX
8
PICTURE
10
0
20
0
30
0
70
128
71
-47
72
45
73
46
0
VERTEX
8
PICTURE
10
0
20
0
30
0
70
128
71
-45
72
79
73
80
0
VERTEX
8
PICTURE
10
0
20
0
30
0
70
128
71
-45
72
77
73
-78
0
VERTEX
8
PICTURE
10
0
20
0
30
0
70
128
71
-45
72
75
73
-76
0
VERTEX
8
PICTURE
10
0
20
0
30
0
70
128
71
-75
72
73
73
74
0
VERTEX
8
PICTURE
10
0
20
0
30
0
70
128
71
-73
72
71
73
72
0
VERTEX
8
PICTURE
10
0
20
0
30
0
70
128
71
-70
72
68
73
69
0
VERTEX
8
PICTURE
10
0
20
0
30
0
70
128
71
-64
72
62
73
63
0
VERTEX
8
PICTURE
10
0
20
0
30
0
70
128
71
-62
72
60
73
61
0
VERTEX
8
PICTURE
10
0
20
0
30
0
70
128
71
-45
72
57
73
-58
0
VERTEX
8
PICTURE
10
0
20
0
30
0
70
128
71
-45
72
55
73
-56
0
VERTEX
8
PICTURE
10
0
20
0
30
0
70
128
71
-45
72
53
73
-54
0
VERTEX
8
PICTURE
10
0
20
0
30
0
70
128
71
-45
72
51
73
-52
0
VERTEX
8
PICTURE
10
0
20
0
30
0
70
128
71
-45
72
49
73
-50
0
VERTEX
8
PICTURE
10
0
20
0
30
0
70
128
71
-45
72
47
73
-48
0
VERTEX
8
PICTURE
10
0
20
0
30
0
70
128
71
-45
72
78
73
-79
0
VERTEX
8
PICTURE
10
0
20
0
30
0
70
128
71
-75
72
-71
73
-73
0
VERTEX
8
PICTURE
10
0
20
0
30
0
70
128
71
-70
72
67
73
-68
0
VERTEX
8
PICTURE
10
0
20
0
30
0
70
128
71
-65
72
-62
73
64
0
VERTEX
8
PICTURE
10
0
20
0
30
0
70
128
71
-45
72
56
73
-57
0
VERTEX
8
PICTURE
10
0
20
0
30
0
70
128
71
-45
72
52
73
-53
0
VERTEX
8
PICTURE
10
0
20
0
30
0
70
128
71
-45
72
48
73
-49
0
VERTEX
8
PICTURE
10
0
20
0
30
0
70
128
71
-45
72
76
73
-77
0
VERTEX
8
PICTURE
10
0
20
0
30
0
70
128
71
-45
72
-70
73
-75
0
VERTEX
8
PICTURE
10
0
20
0
30
0
70
128
71
-70
72
66
73
-67
0
VERTEX
8
PICTURE
10
0
20
0
30
0
70
128
71
-70
72
-62
73
-65
0
VERTEX
8
PICTURE
10
0
20
0
30
0
70
128
71
-45
72
54
73
-55
0
VERTEX
8
PICTURE
10
0
20
0
30
0
70
128
71
-51
72
-45
73
50
0
VERTEX
8
PICTURE
10
0
20
0
30
0
70
128
71
70
72
-71
73
-75
0
VERTEX
8
PICTURE
10
0
20
0
30
0
70
128
71
-70
72
65
73
-66
0
VERTEX
8
PICTURE
10
0
20
0
30
0
70
128
71
-59
72
-45
73
58
0
VERTEX
8
PICTURE
10
0
20
0
30
0
70
128
71
-70
72
-60
73
-62
0
VERTEX
8
PICTURE
10
0
20
0
30
0
70
128
71
-70
72
-45
73
-59
0
VERTEX
8
PICTURE
10
0
20
0
30
0
70
128
71
81
72
-117
73
82
0
VERTEX
8
PICTURE
10
0
20
0
30
0
70
128
71
118
72
-82
73
117
0
VERTEX
8
PICTURE
10
0
20
0
30
0
70
128
71
82
72
-118
73
83
0
VERTEX
8
PICTURE
10
0
20
0
30
0
70
128
71
119
72
-83
73
118
0
VERTEX
8
PICTURE
10
0
20
0
30
0
70
128
71
83
72
-119
73
84
0
VERTEX
8
PICTURE
10
0
20
0
30
0
70
128
71
120
72
-84
73
119
0
VERTEX
8
PICTURE
10
0
20
0
30
0
70
128
71
84
72
-120
73
85
0
VERTEX
8
PICTURE
10
0
20
0
30
0
70
128
71
121
72
-85
73
120
0
VERTEX
8
PICTURE
10
0
20
0
30
0
70
128
71
85
72
-121
73
86
0
VERTEX
8
PICTURE
10
0
20
0
30
0
70
128
71
122
72
-86
73
121
0
VERTEX
8
PICTURE
10
0
20
0
30
0
70
128
71
86
72
-122
73
87
0
VERTEX
8
PICTURE
10
0
20
0
30
0
70
128
71
123
72
-87
73
122
0
VERTEX
8
PICTURE
10
0
20
0
30
0
70
128
71
87
72
-123
73
88
0
VERTEX
8
PICTURE
10
0
20
0
30
0
70
128
71
124
72
-88
73
123
0
VERTEX
8
PICTURE
10
0
20
0
30
0
70
128
71
88
72
-124
73
89
0
VERTEX
8
PICTURE
10
0
20
0
30
0
70
128
71
125
72
-89
73
124
0
VERTEX
8
PICTURE
10
0
20
0
30
0
70
128
71
89
72
-125
73
90
0
VERTEX
8
PICTURE
10
0
20
0
30
0
70
128
71
126
72
-90
73
125
0
VERTEX
8
PICTURE
10
0
20
0
30
0
70
128
71
90
72
-126
73
91
0
VERTEX
8
PICTURE
10
0
20
0
30
0
70
128
71
127
72
-91
73
126
0
VERTEX
8
PICTURE
10
0
20
0
30
0
70
128
71
91
72
-127
73
92
0
VERTEX
8
PICTURE
10
0
20
0
30
0
70
128
71
128
72
-92
73
127
0
VERTEX
8
PICTURE
10
0
20
0
30
0
70
128
71
92
72
-128
73
93
0
VERTEX
8
PICTURE
10
0
20
0
30
0
70
128
71
129
72
-93
73
128
0
VERTEX
8
PICTURE
10
0
20
0
30
0
70
128
71
93
72
-129
73
94
0
VERTEX
8
PICTURE
10
0
20
0
30
0
70
128
71
130
72
-94
73
129
0
VERTEX
8
PICTURE
10
0
20
0
30
0
70
128
71
94
72
-130
73
95
0
VERTEX
8
PICTURE
10
0
20
0
30
0
70
128
71
131
72
-95
73
130
0
VERTEX
8
PICTURE
10
0
20
0
30
0
70
128
71
95
72
-131
73
96
0
VERTEX
8
PICTURE
10
0
20
0
30
0
70
128
71
132
72
-96
73
131
0
VERTEX
8
PICTURE
10
0
20
0
30
0
70
128
71
96
72
-132
73
97
0
VERTEX
8
PICTURE
10
0
20
0
30
0
70
128
71
133
72
-97
73
132
0
VERTEX
8
PICTURE
10
0
20
0
30
0
70
128
71
97
72
-133
73
98
0
VERTEX
8
PICTURE
10
0
20
0
30
0
70
128
71
134
72
-98
73
133
0
VERTEX
8
PICTURE
10
0
20
0
30
0
70
128
71
98
72
-134
73
99
0
VERTEX
8
PICTURE
10
0
20
0
30
0
70
128
71
135
72
-99
73
134
0
VERTEX
8
PICTURE
10
0
20
0
30
0
70
128
71
99
72
-135
73
100
0
VERTEX
8
PICTURE
10
0
20
0
30
0
70
128
71
136
72
-100
73
135
0
VERTEX
8
PICTURE
10
0
20
0
30
0
70
128
71
100
72
-136
73
101
0
VERTEX
8
PICTURE
10
0
20
0
30
0
70
128
71
137
72
-101
73
136
0
VERTEX
8
PICTURE
10
0
20
0
30
0
70
128
71
101
72
-137
73
102
0
VERTEX
8
PICTURE
10
0
20
0
30
0
70
128
71
138
72
-102
73
137
0
VERTEX
8
PICTURE
10
0
20
0
30
0
70
128
71
102
72
-138
73
103
0
VERTEX
8
PICTURE
10
0
20
0
30
0
70
128
71
139
72
-103
73
138
0
VERTEX
8
PICTURE
10
0
20
0
30
0
70
128
71
103
72
-139
73
104
0
VERTEX
8
PICTURE
10
0
20
0
30
0
70
128
71
140
72
-104
73
139
0
VERTEX
8
PICTURE
10
0
20
0
30
0
70
128
71
104
72
-140
73
105
0
VERTEX
8
PICTURE
10
0
20
0
30
0
70
128
71
141
72
-105
73
140
0
VERTEX
8
PICTURE
10
0
20
0
30
0
70
128
71
105
72
-141
73
106
0
VERTEX
8
PICTURE
10
0
20
0
30
0
70
128
71
142
72
-106
73
141
0
VERTEX
8
PICTURE
10
0
20
0
30
0
70
128
71
106
72
-142
73
107
0
VERTEX
8
PICTURE
10
0
20
0
30
0
70
128
71
143
72
-107
73
142
0
VERTEX
8
PICTURE
10
0
20
0
30
0
70
128
71
107
72
-143
73
108
0
VERTEX
8
PICTURE
10
0
20
0
30
0
70
128
71
144
72
-108
73
143
0
VERTEX
8
PICTURE
10
0
20
0
30
0
70
128
71
108
72
-144
73
109
0
VERTEX
8
PICTURE
10
0
20
0
30
0
70
128
71
145
72
-109
73
144
0
VERTEX
8
PICTURE
10
0
20
0
30
0
70
128
71
109
72
-145
73
110
0
VERTEX
8
PICTURE
10
0
20
0
30
0
70
128
71
146
72
-110
73
145
0
VERTEX
8
PICTURE
10
0
20
0
30
0
70
128
71
110
72
-146
73
111
0
VERTEX
8
PICTURE
10
0
20
0
30
0
70
128
71
147
72
-111
73
146
0
VERTEX
8
PICTURE
10
0
20
0
30
0
70
128
71
111
72
-147
73
112
0
VERTEX
8
PICTURE
10
0
20
0
30
0
70
128
71
148
72
-112
73
147
0
VERTEX
8
PICTURE
10
0
20
0
30
0
70
128
71
112
72
-148
73
113
0
VERTEX
8
PICTURE
10
0
20
0
30
0
70
128
71
149
72
-113
73
148
0
VERTEX
8
PICTURE
10
0
20
0
30
0
70
128
71
113
72
-149
73
114
0
VERTEX
8
PICTURE
10
0
20
0
30
0
70
128
71
150
72
-114
73
149
0
VERTEX
8
PICTURE
10
0
20
0
30
0
70
128
71
114
72
-150
73
115
0
VERTEX
8
PICTURE
10
0
20
0
30
0
70
128
71
151
72
-115
73
150
0
VERTEX
8
PICTURE
10
0
20
0
30
0
70
128
71
115
72
-151
73
116
0
VERTEX
8
PICTURE
10
0
20
0
30
0
70
128
71
152
72
-116
73
151
0
VERTEX
8
PICTURE
10
0
20
0
30
0
70
128
71
116
72
-152
73
81
0
VERTEX
8
PICTURE
10
0
20
0
30
0
70
128
71
117
72
-81
73
152
0
VERTEX
8
PICTURE
10
0
20
0
30
0
70
128
71
-95
72
-106
73
-81
0
VERTEX
8
PICTURE
10
0
20
0
30
0
70
128
71
-131
72
-142
73
132
0
VERTEX
8
PICTURE
10
0
20
0
30
0
70
128
71
81
72
82
73
-83
0
VERTEX
8
PICTURE
10
0
20
0
30
0
70
128
71
-81
72
84
73
-85
0
VERTEX
8
PICTURE
10
0
20
0
30
0
70
128
71
-81
72
86
73
-87
0
VERTEX
8
PICTURE
10
0
20
0
30
0
70
128
71
-81
72
88
73
-89
0
VERTEX
8
PICTURE
10
0
20
0
30
0
70
128
71
-81
72
90
73
-91
0
VERTEX
8
PICTURE
10
0
20
0
30
0
70
128
71
-81
72
92
73
-93
0
VERTEX
8
PICTURE
10
0
20
0
30
0
70
128
71
-81
72
94
73
-95
0
VERTEX
8
PICTURE
10
0
20
0
30
0
70
128
71
96
72
97
73
-98
0
VERTEX
8
PICTURE
10
0
20
0
30
0
70
128
71
98
72
99
73
-100
0
VERTEX
8
PICTURE
10
0
20
0
30
0
70
128
71
103
72
104
73
-105
0
VERTEX
8
PICTURE
10
0
20
0
30
0
70
128
71
-109
72
107
73
108
0
VERTEX
8
PICTURE
10
0
20
0
30
0
70
128
71
109
72
110
73
-111
0
VERTEX
8
PICTURE
10
0
20
0
30
0
70
128
71
111
72
112
73
-113
0
VERTEX
8
PICTURE
10
0
20
0
30
0
70
128
71
-111
72
114
73
-115
0
VERTEX
8
PICTURE
10
0
20
0
30
0
70
128
71
-111
72
116
73
-81
0
VERTEX
8
PICTURE
10
0
20
0
30
0
70
128
71
-81
72
83
73
-84
0
VERTEX
8
PICTURE
10
0
20
0
30
0
70
128
71
-81
72
87
73
-88
0
VERTEX
8
PICTURE
10
0
20
0
30
0
70
128
71
-81
72
91
73
-92
0
VERTEX
8
PICTURE
10
0
20
0
30
0
70
128
71
-106
72
100
73
-101
0
VERTEX
8
PICTURE
10
0
20
0
30
0
70
128
71
-106
72
-103
73
105
0
VERTEX
8
PICTURE
10
0
20
0
30
0
70
128
71
-111
72
-107
73
-109
0
VERTEX
8
PICTURE
10
0
20
0
30
0
70
128
71
-111
72
113
73
-114
0
VERTEX
8
PICTURE
10
0
20
0
30
0
70
128
71
-81
72
85
73
-86
0
VERTEX
8
PICTURE
10
0
20
0
30
0
70
128
71
-81
72
93
73
-94
0
VERTEX
8
PICTURE
10
0
20
0
30
0
70
128
71
-106
72
101
73
-102
0
VERTEX
8
PICTURE
10
0
20
0
30
0
70
128
71
102
72
-103
73
-106
0
VERTEX
8
PICTURE
10
0
20
0
30
0
70
128
71
-81
72
-106
73
-111
0
VERTEX
8
PICTURE
10
0
20
0
30
0
70
128
71
-111
72
115
73
-116
0
VERTEX
8
PICTURE
10
0
20
0
30
0
70
128
71
-81
72
89
73
-90
0
VERTEX
8
PICTURE
10
0
20
0
30
0
70
128
71
-98
72
-100
73
-106
0
VERTEX
8
PICTURE
10
0
20
0
30
0
70
128
71
106
72
-107
73
-111
0
VERTEX
8
PICTURE
10
0
20
0
30
0
70
128
71
-106
72
95
73
-96
0
VERTEX
8
PICTURE
10
0
20
0
30
0
70
128
71
-96
72
-98
73
-106
0
VERTEX
8
PICTURE
10
0
20
0
30
0
70
128
71
119
72
118
73
-117
0
VERTEX
8
PICTURE
10
0
20
0
30
0
70
128
71
117
72
152
73
-151
0
VERTEX
8
PICTURE
10
0
20
0
30
0
70
128
71
-117
72
150
73
-149
0
VERTEX
8
PICTURE
10
0
20
0
30
0
70
128
71
-117
72
148
73
-147
0
VERTEX
8
PICTURE
10
0
20
0
30
0
70
128
71
147
72
146
73
-145
0
VERTEX
8
PICTURE
10
0
20
0
30
0
70
128
71
145
72
144
73
-143
0
VERTEX
8
PICTURE
10
0
20
0
30
0
70
128
71
142
72
141
73
-140
0
VERTEX
8
PICTURE
10
0
20
0
30
0
70
128
71
136
72
135
73
-134
0
VERTEX
8
PICTURE
10
0
20
0
30
0
70
128
71
134
72
133
73
-132
0
VERTEX
8
PICTURE
10
0
20
0
30
0
70
128
71
-117
72
130
73
-129
0
VERTEX
8
PICTURE
10
0
20
0
30
0
70
128
71
-117
72
128
73
-127
0
VERTEX
8
PICTURE
10
0
20
0
30
0
70
128
71
-117
72
126
73
-125
0
VERTEX
8
PICTURE
10
0
20
0
30
0
70
128
71
-117
72
124
73
-123
0
VERTEX
8
PICTURE
10
0
20
0
30
0
70
128
71
-117
72
122
73
-121
0
VERTEX
8
PICTURE
10
0
20
0
30
0
70
128
71
-117
72
120
73
-119
0
VERTEX
8
PICTURE
10
0
20
0
30
0
70
128
71
-117
72
151
73
-150
0
VERTEX
8
PICTURE
10
0
20
0
30
0
70
128
71
-147
72
-145
73
-143
0
VERTEX
8
PICTURE
10
0
20
0
30
0
70
128
71
-142
72
140
73
-139
0
VERTEX
8
PICTURE
10
0
20
0
30
0
70
128
71
137
72
-136
73
-134
0
VERTEX
8
PICTURE
10
0
20
0
30
0
70
128
71
-117
72
129
73
-128
0
VERTEX
8
PICTURE
10
0
20
0
30
0
70
128
71
-117
72
125
73
-124
0
VERTEX
8
PICTURE
10
0
20
0
30
0
70
128
71
-117
72
121
73
-120
0
VERTEX
8
PICTURE
10
0
20
0
30
0
70
128
71
-117
72
149
73
-148
0
VERTEX
8
PICTURE
10
0
20
0
30
0
70
128
71
-117
72
-147
73
-142
0
VERTEX
8
PICTURE
10
0
20
0
30
0
70
128
71
-142
72
139
73
-138
0
VERTEX
8
PICTURE
10
0
20
0
30
0
70
128
71
-142
72
-137
73
-134
0
VERTEX
8
PICTURE
10
0
20
0
30
0
70
128
71
-117
72
127
73
-126
0
VERTEX
8
PICTURE
10
0
20
0
30
0
70
128
71
123
72
-122
73
-117
0
VERTEX
8
PICTURE
10
0
20
0
30
0
70
128
71
-142
72
-147
73
143
0
VERTEX
8
PICTURE
10
0
20
0
30
0
70
128
71
-142
72
138
73
-137
0
VERTEX
8
PICTURE
10
0
20
0
30
0
70
128
71
131
72
-130
73
-117
0
VERTEX
8
PICTURE
10
0
20
0
30
0
70
128
71
-142
72
-134
73
-132
0
VERTEX
8
PICTURE
10
0
20
0
30
0
70
128
71
-142
72
-131
73
-117
0
VERTEX
8
PICTURE
10
0
20
0
30
0
70
128
71
153
72
-154
73
189
0
VERTEX
8
PICTURE
10
0
20
0
30
0
70
128
71
190
72
-189
73
154
0
VERTEX
8
PICTURE
10
0
20
0
30
0
70
128
71
154
72
-155
73
190
0
VERTEX
8
PICTURE
10
0
20
0
30
0
70
128
71
191
72
-190
73
155
0
VERTEX
8
PICTURE
10
0
20
0
30
0
70
128
71
155
72
-156
73
191
0
VERTEX
8
PICTURE
10
0
20
0
30
0
70
128
71
192
72
-191
73
156
0
VERTEX
8
PICTURE
10
0
20
0
30
0
70
128
71
156
72
-157
73
192
0
VERTEX
8
PICTURE
10
0
20
0
30
0
70
128
71
193
72
-192
73
157
0
VERTEX
8
PICTURE
10
0
20
0
30
0
70
128
71
157
72
-158
73
193
0
VERTEX
8
PICTURE
10
0
20
0
30
0
70
128
71
194
72
-193
73
158
0
VERTEX
8
PICTURE
10
0
20
0
30
0
70
128
71
158
72
-159
73
194
0
VERTEX
8
PICTURE
10
0
20
0
30
0
70
128
71
195
72
-194
73
159
0
VERTEX
8
PICTURE
10
0
20
0
30
0
70
128
71
159
72
-160
73
195
0
VERTEX
8
PICTURE
10
0
20
0
30
0
70
128
71
196
72
-195
73
160
0
VERTEX
8
PICTURE
10
0
20
0
30
0
70
128
71
160
72
-161
73
196
0
VERTEX
8
PICTURE
10
0
20
0
30
0
70
128
71
197
72
-196
73
161
0
VERTEX
8
PICTURE
10
0
20
0
30
0
70
128
71
161
72
-162
73
197
0
VERTEX
8
PICTURE
10
0
20
0
30
0
70
128
71
198
72
-197
73
162
0
VERTEX
8
PICTURE
10
0
20
0
30
0
70
128
71
162
72
-163
73
198
0
VERTEX
8
PICTURE
10
0
20
0
30
0
70
128
71
199
72
-198
73
163
0
VERTEX
8
PICTURE
10
0
20
0
30
0
70
128
71
163
72
-164
73
199
0
VERTEX
8
PICTURE
10
0
20
0
30
0
70
128
71
200
72
-199
73
164
0
VERTEX
8
PICTURE
10
0
20
0
30
0
70
128
71
164
72
-165
73
200
0
VERTEX
8
PICTURE
10
0
20
0
30
0
70
128
71
201
72
-200
73
165
0
VERTEX
8
PICTURE
10
0
20
0
30
0
70
128
71
165
72
-166
73
201
0
VERTEX
8
PICTURE
10
0
20
0
30
0
70
128
71
202
72
-201
73
166
0
VERTEX
8
PICTURE
10
0
20
0
30
0
70
128
71
166
72
-167
73
202
0
VERTEX
8
PICTURE
10
0
20
0
30
0
70
128
71
203
72
-202
73
167
0
VERTEX
8
PICTURE
10
0
20
0
30
0
70
128
71
167
72
-168
73
203
0
VERTEX
8
PICTURE
10
0
20
0
30
0
70
128
71
204
72
-203
73
168
0
VERTEX
8
PICTURE
10
0
20
0
30
0
70
128
71
168
72
-169
73
204
0
VERTEX
8
PICTURE
10
0
20
0
30
0
70
128
71
205
72
-204
73
169
0
VERTEX
8
PICTURE
10
0
20
0
30
0
70
128
71
169
72
-170
73
205
0
VERTEX
8
PICTURE
10
0
20
0
30
0
70
128
71
206
72
-205
73
170
0
VERTEX
8
PICTURE
10
0
20
0
30
0
70
128
71
170
72
-171
73
206
0
VERTEX
8
PICTURE
10
0
20
0
30
0
70
128
71
207
72
-206
73
171
0
VERTEX
8
PICTURE
10
0
20
0
30
0
70
128
71
171
72
-172
73
207
0
VERTEX
8
PICTURE
10
0
20
0
30
0
70
128
71
208
72
-207
73
172
0
VERTEX
8
PICTURE
10
0
20
0
30
0
70
128
71
172
72
-173
73
208
0
VERTEX
8
PICTURE
10
0
20
0
30
0
70
128
71
209
72
-208
73
173
0
VERTEX
8
PICTURE
10
0
20
0
30
0
70
128
71
173
72
-174
73
209
0
VERTEX
8
PICTURE
10
0
20
0
30
0
70
128
71
210
72
-209
73
174
0
VERTEX
8
PICTURE
10
0
20
0
30
0
70
128
71
174
72
-175
73
210
0
VERTEX
8
PICTURE
10
0
20
0
30
0
70
128
71
211
72
-210
73
175
0
VERTEX
8
PICTURE
10
0
20
0
30
0
70
128
71
175
72
-176
73
211
0
VERTEX
8
PICTURE
10
0
20
0
30
0
70
128
71
212
72
-211
73
176
0
VERTEX
8
PICTURE
10
0
20
0
30
0
70
128
71
176
72
-177
73
212
0
VERTEX
8
PICTURE
10
0
20
0
30
0
70
128
71
213
72
-212
73
177
0
VERTEX
8
PICTURE
10
0
20
0
30
0
70
128
71
177
72
-178
73
213
0
VERTEX
8
PICTURE
10
0
20
0
30
0
70
128
71
214
72
-213
73
178
0
VERTEX
8
PICTURE
10
0
20
0
30
0
70
128
71
178
72
-179
73
214
0
VERTEX
8
PICTURE
10
0
20
0
30
0
70
128
71
215
72
-214
73
179
0
VERTEX
8
PICTURE
10
0
20
0
30
0
70
128
71
179
72
-180
73
215
0
VERTEX
8
PICTURE
10
0
20
0
30
0
70
128
71
216
72
-215
73
180
0
VERTEX
8
PICTURE
10
0
20
0
30
0
70
128
71
180
72
-181
73
216
0
VERTEX
8
PICTURE
10
0
20
0
30
0
70
128
71
217
72
-216
73
181
0
VERTEX
8
PICTURE
10
0
20
0
30
0
70
128
71
181
72
-182
73
217
0
VERTEX
8
PICTURE
10
0
20
0
30
0
70
128
71
218
72
-217
73
182
0
VERTEX
8
PICTURE
10
0
20
0
30
0
70
128
71
182
72
-183
73
218
0
VERTEX
8
PICTURE
10
0
20
0
30
0
70
128
71
219
72
-218
73
183
0
VERTEX
8
PICTURE
10
0
20
0
30
0
70
128
71
183
72
-184
73
219
0
VERTEX
8
PICTURE
10
0
20
0
30
0
70
128
71
220
72
-219
73
184
0
VERTEX
8
PICTURE
10
0
20
0
30
0
70
128
71
184
72
-185
73
220
0
VERTEX
8
PICTURE
10
0
20
0
30
0
70
128
71
221
72
-220
73
185
0
VERTEX
8
PICTURE
10
0
20
0
30
0
70
128
71
185
72
-186
73
221
0
VERTEX
8
PICTURE
10
0
20
0
30
0
70
128
71
222
72
-221
73
186
0
VERTEX
8
PICTURE
10
0
20
0
30
0
70
128
71
186
72
-187
73
222
0
VERTEX
8
PICTURE
10
0
20
0
30
0
70
128
71
223
72
-222
73
187
0
VERTEX
8
PICTURE
10
0
20
0
30
0
70
128
71
187
72
-188
73
223
0
VERTEX
8
PICTURE
10
0
20
0
30
0
70
128
71
224
72
-223
73
188
0
VERTEX
8
PICTURE
10
0
20
0
30
0
70
128
71
188
72
-153
73
224
0
VERTEX
8
PICTURE
10
0
20
0
30
0
70
128
71
189
72
-224
73
153
0
VERTEX
8
PICTURE
10
0
20
0
30
0
70
128
71
-167
72
-153
73
-178
0
VERTEX
8
PICTURE
10
0
20
0
30
0
70
128
71
203
72
-204
73
-214
0
VERTEX
8
PICTURE
10
0
20
0
30
0
70
128
71
-153
72
155
73
154
0
VERTEX
8
PICTURE
10
0
20
0
30
0
70
128
71
-153
72
157
73
-156
0
VERTEX
8
PICTURE
10
0
20
0
30
0
70
128
71
-153
72
159
73
-158
0
VERTEX
8
PICTURE
10
0
20
0
30
0
70
128
71
-153
72
161
73
-160
0
VERTEX
8
PICTURE
10
0
20
0
30
0
70
128
71
-153
72
163
73
-162
0
VERTEX
8
PICTURE
10
0
20
0
30
0
70
128
71
-153
72
165
73
-164
0
VERTEX
8
PICTURE
10
0
20
0
30
0
70
128
71
-153
72
167
73
-166
0
VERTEX
8
PICTURE
10
0
20
0
30
0
70
128
71
-168
72
170
73
169
0
VERTEX
8
PICTURE
10
0
20
0
30
0
70
128
71
-170
72
172
73
171
0
VERTEX
8
PICTURE
10
0
20
0
30
0
70
128
71
-175
72
177
73
176
0
VERTEX
8
PICTURE
10
0
20
0
30
0
70
128
71
181
72
180
73
-179
0
VERTEX
8
PICTURE
10
0
20
0
30
0
70
128
71
-181
72
183
73
182
0
VERTEX
8
PICTURE
10
0
20
0
30
0
70
128
71
-183
72
185
73
184
0
VERTEX
8
PICTURE
10
0
20
0
30
0
70
128
71
-183
72
187
73
-186
0
VERTEX
8
PICTURE
10
0
20
0
30
0
70
128
71
-183
72
153
73
-188
0
VERTEX
8
PICTURE
10
0
20
0
30
0
70
128
71
-153
72
156
73
-155
0
VERTEX
8
PICTURE
10
0
20
0
30
0
70
128
71
-153
72
160
73
-159
0
VERTEX
8
PICTURE
10
0
20
0
30
0
70
128
71
-153
72
164
73
-163
0
VERTEX
8
PICTURE
10
0
20
0
30
0
70
128
71
-178
72
173
73
-172
0
VERTEX
8
PICTURE
10
0
20
0
30
0
70
128
71
178
72
-177
73
-175
0
VERTEX
8
PICTURE
10
0
20
0
30
0
70
128
71
-183
72
-181
73
-179
0
VERTEX
8
PICTURE
10
0
20
0
30
0
70
128
71
-183
72
186
73
-185
0
VERTEX
8
PICTURE
10
0
20
0
30
0
70
128
71
-153
72
158
73
-157
0
VERTEX
8
PICTURE
10
0
20
0
30
0
70
128
71
-153
72
166
73
-165
0
VERTEX
8
PICTURE
10
0
20
0
30
0
70
128
71
-178
72
174
73
-173
0
VERTEX
8
PICTURE
10
0
20
0
30
0
70
128
71
-174
72
-178
73
175
0
VERTEX
8
PICTURE
10
0
20
0
30
0
70
128
71
-153
72
-183
73
-178
0
VERTEX
8
PICTURE
10
0
20
0
30
0
70
128
71
-183
72
188
73
-187
0
VERTEX
8
PICTURE
10
0
20
0
30
0
70
128
71
-153
72
162
73
-161
0
VERTEX
8
PICTURE
10
0
20
0
30
0
70
128
71
-170
72
-178
73
-172
0
VERTEX
8
PICTURE
10
0
20
0
30
0
70
128
71
-178
72
-183
73
179
0
VERTEX
8
PICTURE
10
0
20
0
30
0
70
128
71
-178
72
168
73
-167
0
VERTEX
8
PICTURE
10
0
20
0
30
0
70
128
71
-168
72
-178
73
-170
0
VERTEX
8
PICTURE
10
0
20
0
30
0
70
128
71
-191
72
189
73
190
0
VERTEX
8
PICTURE
10
0
20
0
30
0
70
128
71
-189
72
223
73
224
0
VERTEX
8
PICTURE
10
0
20
0
30
0
70
128
71
-189
72
221
73
-222
0
VERTEX
8
PICTURE
10
0
20
0
30
0
70
128
71
-189
72
219
73
-220
0
VERTEX
8
PICTURE
10
0
20
0
30
0
70
128
71
-219
72
217
73
218
0
VERTEX
8
PICTURE
10
0
20
0
30
0
70
128
71
-217
72
215
73
216
0
VERTEX
8
PICTURE
10
0
20
0
30
0
70
128
71
-214
72
212
73
213
0
VERTEX
8
PICTURE
10
0
20
0
30
0
70
128
71
-208
72
206
73
207
0
VERTEX
8
PICTURE
10
0
20
0
30
0
70
128
71
-206
72
204
73
205
0
VERTEX
8
PICTURE
10
0
20
0
30
0
70
128
71
-189
72
201
73
-202
0
VERTEX
8
PICTURE
10
0
20
0
30
0
70
128
71
-189
72
199
73
-200
0
VERTEX
8
PICTURE
10
0
20
0
30
0
70
128
71
-189
72
197
73
-198
0
VERTEX
8
PICTURE
10
0
20
0
30
0
70
128
71
-189
72
195
73
-196
0
VERTEX
8
PICTURE
10
0
20
0
30
0
70
128
71
-189
72
193
73
-194
0
VERTEX
8
PICTURE
10
0
20
0
30
0
70
128
71
-189
72
191
73
-192
0
VERTEX
8
PICTURE
10
0
20
0
30
0
70
128
71
-189
72
222
73
-223
0
VERTEX
8
PICTURE
10
0
20
0
30
0
70
128
71
-219
72
-215
73
-217
0
VERTEX
8
PICTURE
10
0
20
0
30
0
70
128
71
-214
72
211
73
-212
0
VERTEX
8
PICTURE
10
0
20
0
30
0
70
128
71
-209
72
-206
73
208
0
VERTEX
8
PICTURE
10
0
20
0
30
0
70
128
71
-189
72
200
73
-201
0
VERTEX
8
PICTURE
10
0
20
0
30
0
70
128
71
-189
72
196
73
-197
0
VERTEX
8
PICTURE
10
0
20
0
30
0
70
128
71
-189
72
192
73
-193
0
VERTEX
8
PICTURE
10
0
20
0
30
0
70
128
71
-189
72
220
73
-221
0
VERTEX
8
PICTURE
10
0
20
0
30
0
70
128
71
-189
72
-214
73
-219
0
VERTEX
8
PICTURE
10
0
20
0
30
0
70
128
71
-214
72
210
73
-211
0
VERTEX
8
PICTURE
10
0
20
0
30
0
70
128
71
-214
72
-206
73
-209
0
VERTEX
8
PICTURE
10
0
20
0
30
0
70
128
71
-189
72
198
73
-199
0
VERTEX
8
PICTURE
10
0
20
0
30
0
70
128
71
-195
72
-189
73
194
0
VERTEX
8
PICTURE
10
0
20
0
30
0
70
128
71
214
72
-215
73
-219
0
VERTEX
8
PICTURE
10
0
20
0
30
0
70
128
71
-214
72
209
73
-210
0
VERTEX
8
PICTURE
10
0
20
0
30
0
70
128
71
-203
72
-189
73
202
0
VERTEX
8
PICTURE
10
0
20
0
30
0
70
128
71
-214
72
-204
73
-206
0
VERTEX
8
PICTURE
10
0
20
0
30
0
70
128
71
-214
72
-189
73
-203
0
VERTEX
8
PICTURE
10
0
20
0
30
0
70
128
71
225
72
-261
73
226
0
VERTEX
8
PICTURE
10
0
20
0
30
0
70
128
71
262
72
-226
73
261
0
VERTEX
8
PICTURE
10
0
20
0
30
0
70
128
71
226
72
-262
73
227
0
VERTEX
8
PICTURE
10
0
20
0
30
0
70
128
71
263
72
-227
73
262
0
VERTEX
8
PICTURE
10
0
20
0
30
0
70
128
71
227
72
-263
73
228
0
VERTEX
8
PICTURE
10
0
20
0
30
0
70
128
71
264
72
-228
73
263
0
VERTEX
8
PICTURE
10
0
20
0
30
0
70
128
71
228
72
-264
73
229
0
VERTEX
8
PICTURE
10
0
20
0
30
0
70
128
71
265
72
-229
73
264
0
VERTEX
8
PICTURE
10
0
20
0
30
0
70
128
71
229
72
-265
73
230
0
VERTEX
8
PICTURE
10
0
20
0
30
0
70
128
71
266
72
-230
73
265
0
VERTEX
8
PICTURE
10
0
20
0
30
0
70
128
71
230
72
-266
73
231
0
VERTEX
8
PICTURE
10
0
20
0
30
0
70
128
71
267
72
-231
73
266
0
VERTEX
8
PICTURE
10
0
20
0
30
0
70
128
71
231
72
-267
73
232
0
VERTEX
8
PICTURE
10
0
20
0
30
0
70
128
71
268
72
-232
73
267
0
VERTEX
8
PICTURE
10
0
20
0
30
0
70
128
71
232
72
-268
73
233
0
VERTEX
8
PICTURE
10
0
20
0
30
0
70
128
71
269
72
-233
73
268
0
VERTEX
8
PICTURE
10
0
20
0
30
0
70
128
71
233
72
-269
73
234
0
VERTEX
8
PICTURE
10
0
20
0
30
0
70
128
71
270
72
-234
73
269
0
VERTEX
8
PICTURE
10
0
20
0
30
0
70
128
71
234
72
-270
73
235
0
VERTEX
8
PICTURE
10
0
20
0
30
0
70
128
71
271
72
-235
73
270
0
VERTEX
8
PICTURE
10
0
20
0
30
0
70
128
71
235
72
-271
73
236
0
VERTEX
8
PICTURE
10
0
20
0
30
0
70
128
71
272
72
-236
73
271
0
VERTEX
8
PICTURE
10
0
20
0
30
0
70
128
71
236
72
-272
73
237
0
VERTEX
8
PICTURE
10
0
20
0
30
0
70
128
71
273
72
-237
73
272
0
VERTEX
8
PICTURE
10
0
20
0
30
0
70
128
71
237
72
-273
73
238
0
VERTEX
8
PICTURE
10
0
20
0
30
0
70
128
71
274
72
-238
73
273
0
VERTEX
8
PICTURE
10
0
20
0
30
0
70
128
71
238
72
-274
73
239
0
VERTEX
8
PICTURE
10
0
20
0
30
0
70
128
71
275
72
-239
73
274
0
VERTEX
8
PICTURE
10
0
20
0
30
0
70
128
71
239
72
-275
73
240
0
VERTEX
8
PICTURE
10
0
20
0
30
0
70
128
71
276
72
-240
73
275
0
VERTEX
8
PICTURE
10
0
20
0
30
0
70
128
71
240
72
-276
73
241
0
VERTEX
8
PICTURE
10
0
20
0
30
0
70
128
71
277
72
-241
73
276
0
VERTEX
8
PICTURE
10
0
20
0
30
0
70
128
71
241
72
-277
73
242
0
VERTEX
8
PICTURE
10
0
20
0
30
0
70
128
71
278
72
-242
73
277
0
VERTEX
8
PICTURE
10
0
20
0
30
0
70
128
71
242
72
-278
73
243
0
VERTEX
8
PICTURE
10
0
20
0
30
0
70
128
71
279
72
-243
73
278
0
VERTEX
8
PICTURE
10
0
20
0
30
0
70
128
71
243
72
-279
73
244
0
VERTEX
8
PICTURE
10
0
20
0
30
0
70
128
71
280
72
-244
73
279
0
VERTEX
8
PICTURE
10
0
20
0
30
0
70
128
71
244
72
-280
73
245
0
VERTEX
8
PICTURE
10
0
20
0
30
0
70
128
71
281
72
-245
73
280
0
VERTEX
8
PICTURE
10
0
20
0
30
0
70
128
71
245
72
-281
73
246
0
VERTEX
8
PICTURE
10
0
20
0
30
0
70
128
71
282
72
-246
73
281
0
VERTEX
8
PICTURE
10
0
20
0
30
0
70
128
71
246
72
-282
73
247
0
VERTEX
8
PICTURE
10
0
20
0
30
0
70
128
71
283
72
-247
73
282
0
VERTEX
8
PICTURE
10
0
20
0
30
0
70
128
71
247
72
-283
73
248
0
VERTEX
8
PICTURE
10
0
20
0
30
0
70
128
71
284
72
-248
73
283
0
VERTEX
8
PICTURE
10
0
20
0
30
0
70
128
71
248
72
-284
73
249
0
VERTEX
8
PICTURE
10
0
20
0
30
0
70
128
71
285
72
-249
73
284
0
VERTEX
8
PICTURE
10
0
20
0
30
0
70
128
71
249
72
-285
73
250
0
VERTEX
8
PICTURE
10
0
20
0
30
0
70
128
71
286
72
-250
73
285
0
VERTEX
8
PICTURE
10
0
20
0
30
0
70
128
71
250
72
-286
73
251
0
VERTEX
8
PICTURE
10
0
20
0
30
0
70
128
71
287
72
-251
73
286
0
VERTEX
8
PICTURE
10
0
20
0
30
0
70
128
71
251
72
-287
73
252
0
VERTEX
8
PICTURE
10
0
20
0
30
0
70
128
71
288
72
-252
73
287
0
VERTEX
8
PICTURE
10
0
20
0
30
0
70
128
71
252
72
-288
73
253
0
VERTEX
8
PICTURE
10
0
20
0
30
0
70
128
71
289
72
-253
73
288
0
VERTEX
8
PICTURE
10
0
20
0
30
0
70
128
71
253
72
-289
73
254
0
VERTEX
8
PICTURE
10
0
20
0
30
0
70
128
71
290
72
-254
73
289
0
VERTEX
8
PICTURE
10
0
20
0
30
0
70
128
71
254
72
-290
73
255
0
VERTEX
8
PICTURE
10
0
20
0
30
0
70
128
71
291
72
-255
73
290
0
VERTEX
8
PICTURE
10
0
20
0
30
0
70
128
71
255
72
-291
73
256
0
VERTEX
8
PICTURE
10
0
20
0
30
0
70
128
71
292
72
-256
73
291
0
VERTEX
8
PICTURE
10
0
20
0
30
0
70
128
71
256
72
-292
73
257
0
VERTEX
8
PICTURE
10
0
20
0
30
0
70
128
71
293
72
-257
73
292
0
VERTEX
8
PICTURE
10
0
20
0
30
0
70
128
71
257
72
-293
73
258
0
VERTEX
8
PICTURE
10
0
20
0
30
0
70
128
71
294
72
-258
73
293
0
VERTEX
8
PICTURE
10
0
20
0
30
0
70
128
71
258
72
-294
73
259
0
VERTEX
8
PICTURE
10
0
20
0
30
0
70
128
71
295
72
-259
73
294
0
VERTEX
8
PICTURE
10
0
20
0
30
0
70
128
71
259
72
-295
73
260
0
VERTEX
8
PICTURE
10
0
20
0
30
0
70
128
71
296
72
-260
73
295
0
VERTEX
8
PICTURE
10
0
20
0
30
0
70
128
71
260
72
-296
73
225
0
VERTEX
8
PICTURE
10
0
20
0
30
0
70
128
71
261
72
-225
73
296
0
VERTEX
8
PICTURE
10
0
20
0
30
0
70
128
71
-239
72
-250
73
-225
0
VERTEX
8
PICTURE
10
0
20
0
30
0
70
128
71
-275
72
-286
73
276
0
VERTEX
8
PICTURE
10
0
20
0
30
0
70
128
71
225
72
226
73
-227
0
VERTEX
8
PICTURE
10
0
20
0
30
0
70
128
71
-225
72
228
73
-229
0
VERTEX
8
PICTURE
10
0
20
0
30
0
70
128
71
-225
72
230
73
-231
0
VERTEX
8
PICTURE
10
0
20
0
30
0
70
128
71
-225
72
232
73
-233
0
VERTEX
8
PICTURE
10
0
20
0
30
0
70
128
71
-225
72
234
73
-235
0
VERTEX
8
PICTURE
10
0
20
0
30
0
70
128
71
-225
72
236
73
-237
0
VERTEX
8
PICTURE
10
0
20
0
30
0
70
128
71
-225
72
238
73
-239
0
VERTEX
8
PICTURE
10
0
20
0
30
0
70
128
71
240
72
241
73
-242
0
VERTEX
8
PICTURE
10
0
20
0
30
0
70
128
71
242
72
243
73
-244
0
VERTEX
8
PICTURE
10
0
20
0
30
0
70
128
71
247
72
248
73
-249
0
VERTEX
8
PICTURE
10
0
20
0
30
0
70
128
71
-253
72
251
73
252
0
VERTEX
8
PICTURE
10
0
20
0
30
0
70
128
71
253
72
254
73
-255
0
VERTEX
8
PICTURE
10
0
20
0
30
0
70
128
71
255
72
256
73
-257
0
VERTEX
8
PICTURE
10
0
20
0
30
0
70
128
71
-255
72
258
73
-259
0
VERTEX
8
PICTURE
10
0
20
0
30
0
70
128
71
-255
72
260
73
-225
0
VERTEX
8
PICTURE
10
0
20
0
30
0
70
128
71
-225
72
227
73
-228
0
VERTEX
8
PICTURE
10
0
20
0
30
0
70
128
71
-225
72
231
73
-232
0
VERTEX
8
PICTURE
10
0
20
0
30
0
70
128
71
-225
72
235
73
-236
0
VERTEX
8
PICTURE
10
0
20
0
30
0
70
128
71
-250
72
244
73
-245
0
VERTEX
8
PICTURE
10
0
20
0
30
0
70
128
71
-250
72
-247
73
249
0
VERTEX
8
PICTURE
10
0
20
0
30
0
70
128
71
-255
72
-251
73
-253
0
VERTEX
8
PICTURE
10
0
20
0
30
0
70
128
71
-255
72
257
73
-258
0
VERTEX
8
PICTURE
10
0
20
0
30
0
70
128
71
-225
72
229
73
-230
0
VERTEX
8
PICTURE
10
0
20
0
30
0
70
128
71
-225
72
237
73
-238
0
VERTEX
8
PICTURE
10
0
20
0
30
0
70
128
71
-250
72
245
73
-246
0
VERTEX
8
PICTURE
10
0
20
0
30
0
70
128
71
246
72
-247
73
-250
0
VERTEX
8
PICTURE
10
0
20
0
30
0
70
128
71
-225
72
-250
73
-255
0
VERTEX
8
PICTURE
10
0
20
0
30
0
70
128
71
-255
72
259
73
-260
0
VERTEX
8
PICTURE
10
0
20
0
30
0
70
128
71
-225
72
233
73
-234
0
VERTEX
8
PICTURE
10
0
20
0
30
0
70
128
71
-242
72
-244
73
-250
0
VERTEX
8
PICTURE
10
0
20
0
30
0
70
128
71
250
72
-251
73
-255
0
VERTEX
8
PICTURE
10
0
20
0
30
0
70
128
71
-250
72
239
73
-240
0
VERTEX
8
PICTURE
10
0
20
0
30
0
70
128
71
-240
72
-242
73
-250
0
VERTEX
8
PICTURE
10
0
20
0
30
0
70
128
71
263
72
262
73
-261
0
VERTEX
8
PICTURE
10
0
20
0
30
0
70
128
71
261
72
296
73
-295
0
VERTEX
8
PICTURE
10
0
20
0
30
0
70
128
71
-261
72
294
73
-293
0
VERTEX
8
PICTURE
10
0
20
0
30
0
70
128
71
-261
72
292
73
-291
0
VERTEX
8
PICTURE
10
0
20
0
30
0
70
128
71
291
72
290
73
-289
0
VERTEX
8
PICTURE
10
0
20
0
30
0
70
128
71
289
72
288
73
-287
0
VERTEX
8
PICTURE
10
0
20
0
30
0
70
128
71
286
72
285
73
-284
0
VERTEX
8
PICTURE
10
0
20
0
30
0
70
128
71
280
72
279
73
-278
0
VERTEX
8
PICTURE
10
0
20
0
30
0
70
128
71
278
72
277
73
-276
0
VERTEX
8
PICTURE
10
0
20
0
30
0
70
128
71
-261
72
274
73
-273
0
VERTEX
8
PICTURE
10
0
20
0
30
0
70
128
71
-261
72
272
73
-271
0
VERTEX
8
PICTURE
10
0
20
0
30
0
70
128
71
-261
72
270
73
-269
0
VERTEX
8
PICTURE
10
0
20
0
30
0
70
128
71
-261
72
268
73
-267
0
VERTEX
8
PICTURE
10
0
20
0
30
0
70
128
71
-261
72
266
73
-265
0
VERTEX
8
PICTURE
10
0
20
0
30
0
70
128
71
-261
72
264
73
-263
0
VERTEX
8
PICTURE
10
0
20
0
30
0
70
128
71
-261
72
295
73
-294
0
VERTEX
8
PICTURE
10
0
20
0
30
0
70
128
71
-291
72
-289
73
-287
0
VERTEX
8
PICTURE
10
0
20
0
30
0
70
128
71
-286
72
284
73
-283
0
VERTEX
8
PICTURE
10
0
20
0
30
0
70
128
71
281
72
-280
73
-278
0
VERTEX
8
PICTURE
10
0
20
0
30
0
70
128
71
-261
72
273
73
-272
0
VERTEX
8
PICTURE
10
0
20
0
30
0
70
128
71
-261
72
269
73
-268
0
VERTEX
8
PICTURE
10
0
20
0
30
0
70
128
71
-261
72
265
73
-264
0
VERTEX
8
PICTURE
10
0
20
0
30
0
70
128
71
-261
72
293
73
-292
0
VERTEX
8
PICTURE
10
0
20
0
30
0
70
128
71
-261
72
-291
73
-286
0
VERTEX
8
PICTURE
10
0
20
0
30
0
70
128
71
-286
72
283
73
-282
0
VERTEX
8
PICTURE
10
0
20
0
30
0
70
128
71
-286
72
-281
73
-278
0
VERTEX
8
PICTURE
10
0
20
0
30
0
70
128
71
-261
72
271
73
-270
0
VERTEX
8
PICTURE
10
0
20
0
30
0
70
128
71
267
72
-266
73
-261
0
VERTEX
8
PICTURE
10
0
20
0
30
0
70
128
71
-286
72
-291
73
287
0
VERTEX
8
PICTURE
10
0
20
0
30
0
70
128
71
-286
72
282
73
-281
0
VERTEX
8
PICTURE
10
0
20
0
30
0
70
128
71
275
72
-274
73
-261
0
VERTEX
8
PICTURE
10
0
20
0
30
0
70
128
71
-286
72
-278
73
-276
0
VERTEX
8
PICTURE
10
0
20
0
30
0
70
128
71
-286
72
-275
73
-261
0
VERTEX
8
PICTURE
10
0
20
0
30
0
70
128
71
297
72
298
73
-299
0
VERTEX
8
PICTURE
10
0
20
0
30
0
70
128
71
-297
72
299
73
300
0
SEQEND
8
PICTURE
0
ENDSEC
0
EOF
